<?xml version="1.0" encoding="UTF-8"?>
<svg id="Layer_1" xmlns="http://www.w3.org/2000/svg" version="1.1" viewBox="0 0 267.31 105.76">
  <!-- Generator: Adobe Illustrator 30.4.0, SVG Export Plug-In . SVG Version: 2.1.4 Build 226)  -->
  <defs>
    <style>
      .st0 {
        fill: #12c3f4;
      }

      .st1 {
        fill: #253d89;
      }

      .st2 {
        fill: #ed2a27;
      }
    </style>
  </defs>
  <polygon class="st1" points="112.63 26.66 125.91 26.66 125.91 30.11 117.04 30.11 117.04 32.48 125.64 32.48 125.64 35.8 117.04 35.8 117.04 38.37 125.91 38.37 125.91 41.82 112.63 41.82 112.63 26.66"/>
  <path class="st1" d="M127.5,34.25c0-4.91,4.05-7.84,9.09-7.84,4.11,0,6.66,1.91,7.78,4l-3.77,1.86c-.68-1.32-2.02-2.27-4-2.27-2.73,0-4.57,1.73-4.57,4.25s1.84,4.25,4.57,4.25c1.95,0,3.32-.91,3.96-2.18l3.82,1.84c-1.11,1.98-3.68,3.93-7.78,3.93-5.05,0-9.09-2.96-9.09-7.84"/>
  <path class="st1" d="M145.37,34.25c0-4.89,3.96-7.84,8.98-7.84s8.98,2.95,8.98,7.84-3.93,7.84-8.98,7.84-8.98-2.96-8.98-7.84M154.35,38.5c2.71,0,4.48-1.73,4.48-4.25s-1.77-4.25-4.48-4.25-4.48,1.73-4.48,4.25,1.77,4.25,4.48,4.25"/>
  <polygon class="st1" points="165.44 26.66 169.97 26.66 176.92 35.41 176.92 26.66 181.36 26.66 181.36 41.82 177.08 41.82 169.85 32.71 169.85 41.82 165.44 41.82 165.44 26.66"/>
  <path class="st1" d="M183.42,34.25c0-4.89,3.96-7.84,8.98-7.84s8.98,2.95,8.98,7.84-3.93,7.84-8.98,7.84-8.98-2.96-8.98-7.84M192.4,38.5c2.71,0,4.48-1.73,4.48-4.25s-1.77-4.25-4.48-4.25-4.48,1.73-4.48,4.25,1.77,4.25,4.48,4.25"/>
  <polygon class="st1" points="203.5 26.66 209.52 26.66 213.04 35.21 216.57 26.66 222.62 26.66 222.62 41.82 218.25 41.82 218.25 31.87 214.16 41.82 211.95 41.82 207.84 31.87 207.84 41.82 203.5 41.82 203.5 26.66"/>
  <rect class="st1" x="225.53" y="26.66" width="4.41" height="15.16"/>
  <path class="st1" d="M232.03,34.25c0-4.91,4.05-7.84,9.09-7.84,4.11,0,6.66,1.91,7.78,4l-3.78,1.86c-.68-1.32-2.02-2.27-4-2.27-2.73,0-4.57,1.73-4.57,4.25s1.84,4.25,4.57,4.25c1.95,0,3.32-.91,3.96-2.18l3.82,1.84c-1.11,1.98-3.68,3.93-7.78,3.93-5.05,0-9.09-2.96-9.09-7.84"/>
  <polygon class="st1" points="112.12 45.82 118.15 45.82 121.67 54.37 125.2 45.82 131.24 45.82 131.24 60.99 126.88 60.99 126.88 51.03 122.78 60.99 120.58 60.99 116.46 51.03 116.46 60.99 112.12 60.99 112.12 45.82"/>
  <path class="st1" d="M133.33,53.42c0-4.89,3.96-7.84,8.98-7.84s8.98,2.95,8.98,7.84-3.93,7.84-8.98,7.84-8.98-2.96-8.98-7.84M142.31,57.67c2.7,0,4.48-1.73,4.48-4.25s-1.77-4.25-4.48-4.25-4.48,1.73-4.48,4.25,1.77,4.25,4.48,4.25"/>
  <path class="st1" d="M153.41,45.82h10.21c3.21,0,4.73,1.89,4.73,3.86s-1.2,3.18-2.68,3.48c1.66.25,3,1.77,3,3.71,0,2.27-1.59,4.11-4.71,4.11h-10.55v-15.16ZM162.5,51.71c.89,0,1.41-.55,1.41-1.3s-.52-1.25-1.41-1.25h-4.68v2.55h4.68ZM162.66,57.65c1,0,1.57-.57,1.57-1.36s-.57-1.39-1.57-1.39h-4.84v2.75h4.84Z"/>
  <rect class="st1" x="170.93" y="45.82" width="4.41" height="15.16"/>
  <polygon class="st1" points="178.25 45.82 182.66 45.82 182.66 57.26 190.08 57.26 190.08 60.99 178.25 60.99 178.25 45.82"/>
  <rect class="st1" x="192.17" y="45.82" width="4.41" height="15.16"/>
  <polygon class="st1" points="203.6 49.55 198.67 49.55 198.67 45.82 212.94 45.82 212.94 49.55 208.03 49.55 208.03 60.99 203.6 60.99 203.6 49.55"/>
  <polygon class="st1" points="219.9 55.21 213.22 45.82 218.54 45.82 222.13 51.33 225.65 45.82 231 45.82 224.33 55.21 224.33 60.99 219.9 60.99 219.9 55.21"/>
  <path class="st0" d="M40.73,37.58c.23.35.44.71.65,1.07v-.02c-.21-.36-.43-.7-.66-1.05"/>
  <path class="st0" d="M37.82,61.39c-.08.21-.16.42-.25.63.09-.21.17-.42.25-.63"/>
  <path class="st0" d="M36.92,63.47c-.11.23-.23.45-.35.68.12-.22.23-.45.35-.68"/>
  <path class="st0" d="M37.44,62.35c-.13.3-.27.61-.41.9.14-.3.28-.6.41-.9"/>
  <path class="st0" d="M38.48,59.33c-.06.24-.13.47-.2.7.07-.23.14-.47.2-.7"/>
  <path class="st0" d="M39.53,35.89c-.39-.51-.8-1-1.21-1.48.42.48.83.98,1.21,1.48"/>
  <path class="st0" d="M46.12,81.37c.24-.26.49-.52.73-.78h0c-.24.26-.48.53-.72.79"/>
  <path class="st0" d="M40.71,37.55c-.37-.57-.76-1.12-1.17-1.66.41.54.8,1.09,1.17,1.66"/>
  <path class="st0" d="M38.8,58.04c-.07.34-.15.67-.23,1,.09-.33.16-.66.23-1"/>
  <path class="st0" d="M38.17,60.4c-.07.21-.14.41-.21.62.07-.21.14-.41.21-.62"/>
  <path class="st0" d="M53.24,15.88c-.32-.32-.65-.63-.98-.94.33.31.66.62.98.94"/>
  <path class="st0" d="M53.45,16.09c.24.24.47.48.71.72h0c-.23-.24-.47-.48-.71-.72"/>
  <path class="st0" d="M36.38,64.49c-.1.18-.2.36-.31.54.11-.18.21-.36.31-.54"/>
  <path class="st0" d="M42.74,84.57h0c.15-.13.29-.25.44-.38-.15.13-.29.25-.44.38"/>
  <path class="st0" d="M46.04,81.46c-.36.38-.72.75-1.09,1.11.37-.36.74-.74,1.09-1.11"/>
  <path class="st0" d="M35.14,66.46h0c.05-.07.11-.15.16-.23-.05.08-.11.15-.16.23"/>
  <path class="st0" d="M40.54,28.61h0s0,.01,0,0"/>
  <path class="st0" d="M35.86,65.39c-.11.18-.22.35-.33.52.11-.17.23-.35.33-.52"/>
  <path class="st0" d="M43.04,31.31s-.09-.1-.14-.16c.04.05.09.1.14.16"/>
  <path class="st0" d="M41.84,29.94s-.06-.06-.09-.09c.03.03.06.06.09.09"/>
  <path class="st0" d="M39.12,55.95c-.03.23-.06.47-.09.7.03-.23.06-.46.09-.7"/>
  <path class="st0" d="M44.68,82.82c-.33.32-.66.63-.99.93.34-.3.67-.62.99-.93"/>
  <path class="st0" d="M37.96,45.81c.07.21.14.41.21.62-.07-.21-.14-.41-.21-.62"/>
  <path class="st0" d="M37.03,43.59c.14.3.28.6.41.9-.13-.3-.27-.6-.41-.9"/>
  <path class="st0" d="M37.57,44.81c.09.21.17.42.25.63-.08-.21-.16-.42-.25-.63"/>
  <path class="st0" d="M38.56,47.79c.08.33.16.66.23,1-.07-.34-.15-.67-.23-1"/>
  <path class="st0" d="M48.25,87.15c-.06.06-.13.12-.19.18.06-.06.13-.12.19-.18"/>
  <path class="st0" d="M38.28,46.8c.07.23.14.47.2.7-.06-.23-.13-.47-.2-.7"/>
  <path class="st0" d="M39.24,52.34c.02.36.03.71.03,1.08,0-.36,0-.72-.03-1.08"/>
  <path class="st0" d="M39.16,51.27c.02.24.04.49.06.73-.02-.24-.03-.49-.06-.73"/>
  <path class="st0" d="M39.22,54.83c-.02.24-.03.49-.06.73.02-.24.04-.49.06-.73"/>
  <path class="st0" d="M39.27,53.42h0c0,.36,0,.72-.03,1.08.02-.36.03-.71.03-1.08"/>
  <path class="st0" d="M39.04,50.19c.03.23.06.46.09.7-.03-.23-.06-.47-.09-.7"/>
  <path class="st0" d="M38.84,49.03c.05.26.1.53.14.8-.04-.27-.09-.53-.14-.8"/>
  <path class="st0" d="M50.05,13h0c.7.58,1.38,1.17,2.05,1.79-.67-.61-1.35-1.21-2.05-1.79"/>
  <path class="st0" d="M55.08,9.95s-.09-.08-.13-.12c.04.04.09.08.13.12"/>
  <path class="st0" d="M57.47,12.19h0s0,.01,0,0"/>
  <path class="st0" d="M47,88.28c-.11.09-.21.19-.32.28.11-.09.22-.19.32-.28"/>
  <path class="st0" d="M56.32,11.08c-.05-.05-.1-.1-.16-.15.05.05.1.1.16.15"/>
  <path class="st0" d="M36.57,42.69c.12.22.23.44.34.67-.11-.23-.22-.45-.34-.67"/>
  <path class="st0" d="M38.98,57.01c-.04.27-.09.53-.14.8.05-.26.1-.53.14-.8"/>
  <path class="st0" d="M37.27,33.26h0c.31.33.63.65.92.99-.3-.34-.6-.67-.92-.99"/>
  <path class="st0" d="M36.07,41.8c.1.18.21.35.31.53-.1-.18-.2-.36-.31-.53"/>
  <path class="st0" d="M35.14,40.37h0c.05.07.11.15.16.22-.05-.08-.11-.15-.16-.23"/>
  <path class="st0" d="M35.52,40.93c.11.17.22.34.33.52-.11-.17-.22-.34-.33-.52"/>
  <path class="st0" d="M50.47,59.77c.04-.2.07-.4.11-.59-.03.2-.07.4-.11.59"/>
  <path class="st0" d="M51.01,51.49c0-.19-.03-.38-.04-.58,0,.19.03.38.04.58"/>
  <path class="st0" d="M50.76,57.89c.03-.21.06-.42.08-.63-.02.21-.05.42-.08.63"/>
  <path class="st0" d="M50.96,55.92c0-.19.03-.38.04-.58,0,.19-.03.38-.04.58"/>
  <path class="st0" d="M53.63,36.64c-.29-.63-.58-1.24-.9-1.85.32.61.61,1.23.9,1.85"/>
  <path class="st0" d="M50.91,31.64c.26.4.52.81.76,1.22-.24-.41-.5-.82-.75-1.23h0"/>
  <path class="st0" d="M53.64,36.67c.18.4.34.8.51,1.21v-.03c-.16-.4-.34-.79-.52-1.18"/>
  <path class="st0" d="M51.06,53.42h0Z"/>
  <path class="st0" d="M49.6,63.37c.03-.09.05-.18.07-.26-.02.09-.05.18-.07.26"/>
  <path class="st0" d="M52.69,34.71c-.31-.6-.64-1.19-.98-1.78.34.58.67,1.17.98,1.78"/>
  <path class="st0" d="M50.84,49.57c-.02-.21-.05-.42-.08-.63.03.21.06.42.08.63"/>
  <path class="st0" d="M50.08,61.59c.04-.16.07-.32.11-.49-.04.16-.07.33-.11.49"/>
  <path class="st0" d="M59.91,83c-.29.43-.6.85-.9,1.28.31-.42.61-.85.9-1.28"/>
  <path class="st0" d="M58.23,85.32c.21-.27.41-.54.61-.81-.2.27-.41.54-.61.81h0"/>
  <path class="st0" d="M56.8,30.56s.02.03.03.05c0-.02-.02-.03-.03-.05"/>
  <path class="st0" d="M59.92,82.99c.54-.79,1.05-1.59,1.55-2.4h0c-.49.82-1.01,1.62-1.54,2.41"/>
  <path class="st0" d="M49.67,43.73c-.03-.09-.05-.17-.07-.26.03.09.05.18.07.26"/>
  <path class="st0" d="M50.58,47.66c-.03-.2-.07-.4-.11-.59.04.2.07.4.11.59"/>
  <path class="st0" d="M50.19,45.74c-.04-.16-.07-.33-.11-.49.04.16.08.32.11.49"/>
  <path class="st0" d="M69.24,28.93s-.04-.09-.06-.13c.02.04.04.09.06.13"/>
  <path class="st0" d="M66.93,38.63c-.12-.41-.25-.82-.38-1.22.13.41.25.82.37,1.23h0"/>
  <path class="st0" d="M65.1,33.44c-.17-.42-.35-.83-.53-1.24h0l.54,1.23"/>
  <path class="st0" d="M65.16,33.59c.5,1.23.96,2.48,1.37,3.76-.41-1.27-.87-2.53-1.37-3.76"/>
  <path class="st2" d="M50.05,93.83c-2.01,1.67-4.15,3.2-6.4,4.56,2.66.62,5.4,1.02,8.21,1.16.78-.6,1.55-1.22,2.3-1.86-1.43-1.22-2.8-2.51-4.11-3.86"/>
  <path class="st2" d="M64.57,74.64c-.91,2.05-1.94,4.04-3.1,5.94-.49.82-1.01,1.61-1.55,2.4h0c-.29.44-.59.86-.9,1.29-.06.08-.11.15-.17.23-.2.27-.41.54-.61.81-1.27,1.65-2.62,3.22-4.07,4.71,1.3,1.34,2.67,2.61,4.11,3.8,1.44-1.48,2.79-3.04,4.07-4.67h0c1.15-1.48,2.24-3.01,3.24-4.59h0c1.13-1.77,2.16-3.61,3.1-5.51-1.5-1.35-2.87-2.84-4.11-4.43"/>
  <path class="st2" d="M61.47,26.25c1.16,1.91,2.19,3.89,3.1,5.94.18.41.36.83.53,1.24.02.05.04.1.06.15.5,1.23.96,2.48,1.37,3.76,0,.02.01.04.02.06.13.41.26.81.38,1.22,1.38,4.69,2.12,9.65,2.12,14.79,0-4.85,1.53-9.35,4.12-13.05-.56-2.43-1.27-4.8-2.13-7.11h0c-.55-1.47-1.15-2.92-1.81-4.34-.02-.04-.04-.09-.06-.13-.16-.34-.33-.69-.5-1.03h0c-.93-1.9-1.97-3.73-3.1-5.51-1.46,1.23-2.84,2.56-4.11,3.99"/>
  <path class="st2" d="M66.93,68.2c1.16,1.95,2.55,3.75,4.12,5.37.85-2.3,1.57-4.68,2.13-7.11-2.59-3.7-4.12-8.2-4.12-13.05,0,5.13-.74,10.09-2.12,14.79"/>
  <path class="st2" d="M52.26,14.94c.33.31.66.62.98.94.07.07.14.14.21.2.24.24.48.48.71.72,1.45,1.49,2.81,3.06,4.07,4.71,1.29-1.36,2.66-2.65,4.1-3.85-1.27-1.63-2.63-3.19-4.07-4.67h0c-.26-.27-.52-.54-.78-.8h0c-.38-.39-.76-.75-1.15-1.12-.05-.05-.1-.1-.16-.15l-1.08-.99s-.09-.08-.13-.11c-.26-.23-.53-.46-.8-.69h0c-.75-.64-1.52-1.26-2.3-1.86-2.81.14-5.55.54-8.2,1.16,2.25,1.36,4.39,2.89,6.4,4.56.7.58,1.38,1.18,2.05,1.79.05.05.11.1.16.15"/>
  <path class="st2" d="M35.51,11.15c-2.25.99-4.41,2.17-6.46,3.49,5.07,1.64,9.7,4.25,13.68,7.61,1.01-1.59,2.09-3.12,3.25-4.59-3.16-2.61-6.69-4.81-10.47-6.52"/>
  <path class="st2" d="M50.92,31.63c.26.41.51.82.75,1.23,0,.03.03.05.04.08.34.58.67,1.17.98,1.77,0,.02.02.05.04.07.31.61.61,1.23.9,1.85,0,0,0,.02.02.03.18.39.35.78.52,1.18,1.99,4.8,3.1,10.06,3.1,15.57s-1.11,10.77-3.1,15.57c.9,2.18,1.99,4.25,3.24,6.22,1.23-2.29,2.26-4.7,3.09-7.21-2.07-4.43-3.24-9.37-3.24-14.58s1.17-10.15,3.24-14.58c-.83-2.5-1.86-4.91-3.09-7.21h0c-.18-.34-.37-.69-.56-1.03,0-.01-.02-.03-.03-.05-.81-1.42-1.69-2.8-2.65-4.12h0c-1.24-1.73-2.61-3.38-4.07-4.92-1.16,1.52-2.24,3.09-3.24,4.73,1.5,1.67,2.86,3.47,4.07,5.38"/>
  <path class="st2" d="M46.68,88.57c.11-.09.22-.19.32-.28.36-.31.71-.63,1.06-.96.06-.06.13-.12.19-.18.63-.59,1.24-1.21,1.84-1.83q.4-.41,0,0c1.47-1.54,2.83-3.18,4.07-4.92-1.19-1.65-2.28-3.39-3.24-5.19-1.21,1.9-2.57,3.7-4.07,5.38-.24.27-.48.53-.73.79-.03.03-.06.06-.08.09-.36.38-.72.75-1.09,1.11-.09.09-.18.17-.27.25-.33.32-.66.63-.99.93-.17.15-.34.29-.5.44-.15.13-.29.26-.44.38-3.98,3.36-8.62,5.97-13.68,7.61,2.05,1.33,4.2,2.5,6.46,3.49,3.78-1.71,7.31-3.9,10.47-6.52h0c.23-.21.47-.4.7-.6"/>
  <path class="st2" d="M18.14,82.33c1.45,1.8,3.02,3.49,4.72,5.05,6.38-1.19,12.15-4.13,16.78-8.32-.88-1.78-1.67-3.62-2.37-5.49-4.91,5.06-11.64,8.34-19.13,8.76"/>
  <path class="st2" d="M38.32,34.4c.42.48.83.97,1.21,1.48h0c.41.54.8,1.09,1.17,1.66,0,0,.02.02.02.03.23.34.45.69.66,1.05,2.58,4.33,4.07,9.39,4.07,14.79s-1.49,10.46-4.07,14.79c.65,2.21,1.44,4.36,2.36,6.44,1.59-2.04,2.97-4.27,4.08-6.64v-.02c.7-1.49,1.3-3.03,1.78-4.62.03-.09.05-.18.08-.26.15-.5.28-1.01.41-1.52.04-.16.08-.32.11-.49.1-.44.19-.89.28-1.33.04-.2.07-.4.11-.59.07-.42.13-.85.19-1.28.03-.21.06-.42.08-.63.05-.44.09-.89.12-1.34,0-.19.03-.38.04-.58.04-.64.06-1.28.06-1.93s-.02-1.29-.06-1.93c0-.19-.03-.38-.04-.58-.03-.45-.07-.9-.12-1.34-.02-.21-.05-.42-.08-.63-.06-.43-.12-.86-.19-1.28-.03-.2-.07-.4-.11-.59-.08-.45-.18-.89-.28-1.33-.04-.16-.07-.33-.11-.49-.12-.51-.26-1.02-.41-1.52-.03-.09-.05-.17-.07-.26-.48-1.59-1.08-3.13-1.78-4.62v-.02c-1.11-2.37-2.48-4.6-4.08-6.64h0c-.23-.3-.46-.6-.71-.89-.05-.05-.09-.11-.14-.16-.35-.41-.7-.81-1.06-1.2-.03-.03-.06-.06-.09-.09-.39-.42-.79-.83-1.2-1.22h0c-.3-.3-.6-.57-.91-.84h0c-4.63-4.19-10.4-7.14-16.78-8.33-1.7,1.56-3.27,3.25-4.72,5.05,7.49.42,14.22,3.7,19.13,8.76.31.32.62.65.92.99.04.05.09.1.13.15"/>
  <path class="st2" d="M35.52,65.91c.11-.17.23-.35.33-.52.07-.12.15-.24.22-.36.11-.18.21-.36.31-.54.06-.11.13-.23.19-.34.12-.22.23-.45.35-.68.04-.08.08-.15.11-.22.14-.3.28-.6.41-.9.04-.1.09-.21.13-.32.09-.21.17-.42.25-.64.05-.12.09-.25.13-.37.07-.2.14-.41.21-.62.04-.12.08-.24.12-.37.07-.23.14-.47.2-.7.03-.1.05-.19.08-.29.08-.33.16-.66.23-1,.02-.08.03-.16.04-.23.05-.26.1-.53.14-.8.02-.12.04-.24.05-.36.03-.23.06-.46.09-.7,0-.13.03-.26.04-.38.02-.24.04-.49.06-.73,0-.11.02-.23.02-.34.02-.36.03-.72.03-1.08h0c0-.36,0-.72-.03-1.08,0-.11-.02-.23-.02-.34-.02-.24-.03-.49-.06-.73,0-.13-.03-.26-.04-.38-.03-.23-.06-.47-.09-.7-.02-.12-.03-.24-.05-.36-.04-.27-.09-.53-.14-.8-.02-.08-.03-.16-.04-.23-.07-.34-.15-.67-.23-1-.03-.1-.05-.2-.08-.29-.06-.23-.13-.47-.2-.7-.04-.12-.08-.25-.12-.37-.07-.21-.14-.41-.21-.62-.04-.12-.09-.25-.14-.37-.08-.21-.16-.42-.25-.63-.04-.11-.09-.21-.13-.32-.13-.3-.27-.6-.41-.9-.04-.08-.08-.15-.12-.23-.11-.22-.22-.45-.34-.67-.06-.12-.13-.23-.19-.35-.1-.18-.2-.36-.31-.53-.07-.12-.14-.24-.22-.36-.11-.17-.22-.35-.33-.52-.07-.11-.14-.22-.22-.33-.05-.08-.11-.15-.16-.22-4.12-5.87-10.94-9.72-18.64-9.72-.89,0-1.76.06-2.62.16-1.15,2.04-2.15,4.17-2.98,6.39,1.76-.61,3.64-.94,5.59-.94,9.47,0,17.17,7.7,17.17,17.17s-7.7,17.17-17.17,17.17c-1.96,0-3.84-.33-5.59-.94.83,2.22,1.83,4.35,2.98,6.39.86.1,1.73.15,2.62.15,7.7,0,14.52-3.85,18.64-9.72.05-.07.11-.15.16-.22.07-.11.15-.22.22-.33"/>
  <path class="st0" d="M54.16,97.69c.75.64,1.52,1.26,2.3,1.86,2.81-.14,5.55-.54,8.21-1.16-2.25-1.36-4.39-2.89-6.4-4.56-1.44-1.2-2.81-2.47-4.11-3.8-1.45-1.49-2.81-3.06-4.07-4.71h0c-.6.63-1.21,1.24-1.84,1.83-.06.06-.12.12-.19.18-.35.32-.7.64-1.06.96-.11.09-.21.19-.32.28-.23.2-.47.39-.7.59h0c1.27,1.64,2.63,3.2,4.07,4.68,1.31,1.35,2.68,2.64,4.11,3.86"/>
  <path class="st0" d="M54.95,9.83s.09.08.13.12c.36.32.72.65,1.08.98.05.05.1.1.16.14.39.37.77.74,1.15,1.11h0c.26.27.52.54.78.81h0c2.01-1.67,4.15-3.2,6.4-4.56-2.66-.62-5.4-1.02-8.2-1.16-.78.6-1.55,1.22-2.3,1.86h0c.27.23.54.45.8.69"/>
  <path class="st0" d="M43.68,83.76c.34-.3.67-.62.99-.93.09-.08.18-.17.27-.25.37-.36.74-.73,1.09-1.11.03-.03.06-.06.08-.09.25-.26.48-.53.72-.8-1.15-1.9-2.18-3.88-3.09-5.93-.92-2.08-1.71-4.23-2.36-6.44-1.38-4.69-2.12-9.66-2.12-14.79s.74-10.08,2.11-14.76c-.21-.36-.42-.72-.65-1.07,0,0,0-.02-.02-.03-.37-.57-.76-1.12-1.17-1.66h0c-.39-.51-.8-1-1.22-1.48-.04-.05-.09-.1-.13-.15-.3-.34-.61-.66-.92-.98-.85,2.3-1.56,4.67-2.12,7.09.05.08.11.15.16.23.07.11.15.22.22.33.11.17.22.34.33.52.07.12.15.24.22.36.11.18.21.35.31.53.06.12.13.23.19.35.12.22.23.44.34.67.04.08.08.15.12.23.14.3.28.6.41.9.05.11.09.21.13.32.09.21.17.42.25.63.05.12.09.25.14.37.07.21.14.41.21.62.04.12.08.25.12.37.07.23.14.47.2.7.03.1.06.2.08.29.08.33.16.66.23,1,.02.08.03.16.04.24.05.26.1.53.14.8.02.12.04.24.05.36.03.23.06.46.09.7,0,.13.03.26.04.38.02.24.04.49.06.73,0,.11.02.23.02.34.02.36.03.71.03,1.08s0,.72-.03,1.08c0,.11,0,.23-.02.34,0,.24-.03.49-.06.73,0,.13-.03.26-.04.38-.03.23-.06.47-.09.7-.02.12-.03.24-.05.36-.04.27-.09.53-.14.8-.02.08-.03.16-.04.23-.07.34-.15.67-.23,1-.03.1-.05.2-.08.29-.06.24-.13.47-.2.7-.04.12-.08.25-.12.37-.07.21-.14.41-.21.62-.04.12-.09.25-.14.37-.08.21-.16.42-.25.64-.04.11-.08.21-.13.32-.13.3-.27.6-.41.9-.04.08-.08.15-.11.22-.11.23-.23.45-.35.68-.06.11-.13.23-.19.34-.1.18-.2.36-.31.54-.07.12-.14.24-.21.36-.11.17-.22.35-.34.52-.07.11-.14.22-.22.33-.05.08-.11.15-.16.23.56,2.43,1.27,4.8,2.13,7.11.7,1.88,1.49,3.71,2.37,5.49.94,1.89,1.97,3.73,3.1,5.5.15-.13.3-.25.44-.38.17-.15.34-.29.5-.44"/>
  <path class="st0" d="M40.54,28.61h0c.41.41.81.82,1.2,1.23.03.03.06.06.09.09.36.39.72.8,1.06,1.2.05.05.09.11.14.16.24.29.47.59.71.89h0c.91-2.06,1.94-4.04,3.1-5.95.99-1.64,2.08-3.22,3.24-4.73,1.26-1.65,2.62-3.22,4.07-4.71-.23-.24-.47-.48-.71-.72-.07-.07-.14-.14-.21-.2-.32-.32-.65-.63-.98-.94-.05-.05-.11-.1-.16-.15-.67-.61-1.35-1.21-2.05-1.79-1.43,1.48-2.79,3.04-4.06,4.66-1.15,1.48-2.24,3.01-3.25,4.59-1.13,1.77-2.16,3.61-3.1,5.51v.02c.31.27.61.55.91.83"/>
  <path class="st0" d="M58.84,84.51c.06-.08.11-.16.17-.23.31-.42.61-.85.9-1.28h0c.54-.8,1.05-1.6,1.54-2.42-1.5-1.67-2.85-3.47-4.06-5.37-1.25-1.97-2.34-4.04-3.24-6.22-1.99-4.8-3.1-10.06-3.1-15.57s1.1-10.75,3.09-15.54c-.17-.4-.33-.81-.51-1.21,0,0,0-.02-.02-.03-.29-.63-.59-1.25-.9-1.85,0-.02-.02-.05-.04-.07-.31-.6-.64-1.19-.98-1.78,0-.03-.03-.05-.04-.08-.24-.41-.5-.82-.76-1.22-1.22,2.29-2.26,4.7-3.09,7.2v.02c.69,1.49,1.3,3.03,1.78,4.62.03.09.05.17.07.26.15.5.28,1.01.41,1.52.04.16.07.32.11.49.1.44.19.89.28,1.33.04.2.07.39.11.59.07.42.13.85.19,1.28.03.21.06.42.08.63.05.44.09.89.12,1.34,0,.19.03.38.04.58.04.64.06,1.28.06,1.93s-.02,1.29-.06,1.93c0,.19-.03.39-.04.58-.03.45-.07.9-.12,1.34-.02.21-.05.42-.08.63-.06.43-.12.86-.19,1.28-.03.2-.07.4-.11.59-.08.45-.18.89-.28,1.33-.04.16-.07.33-.11.49-.12.51-.26,1.02-.41,1.52-.03.09-.05.18-.07.26-.48,1.59-1.08,3.13-1.78,4.62v.02c.83,2.5,1.86,4.91,3.09,7.21.97,1.81,2.05,3.54,3.24,5.19,1.24,1.73,2.6,3.37,4.07,4.91.21-.27.41-.54.61-.81"/>
  <path class="st0" d="M62.33,89.16h0c3.16,2.61,6.69,4.8,10.47,6.52,2.25-.99,4.41-2.17,6.46-3.49-5.07-1.65-9.7-4.25-13.68-7.61h0c-1.01,1.59-2.09,3.12-3.25,4.59"/>
  <path class="st0" d="M58.23,21.52c-1.47,1.54-2.83,3.18-4.07,4.92h0c.95,1.33,1.84,2.7,2.65,4.12,0,.02.02.03.03.05.19.34.38.69.56,1.04h0c1.21-1.91,2.57-3.71,4.07-5.39,1.28-1.42,2.65-2.76,4.11-3.99,3.98-3.36,8.61-5.97,13.68-7.61-2.05-1.33-4.2-2.5-6.46-3.49-3.79,1.71-7.31,3.9-10.47,6.52-1.45,1.2-2.81,2.49-4.1,3.85"/>
  <path class="st0" d="M62.86,53.42c0-5.4,1.49-10.45,4.07-14.78-.12-.41-.24-.83-.37-1.23,0-.02-.01-.04-.02-.06-.41-1.28-.87-2.53-1.37-3.76-.02-.05-.04-.1-.06-.15-.17-.42-.35-.83-.54-1.23-1.59,2.04-2.96,4.26-4.07,6.64-2.07,4.43-3.24,9.37-3.24,14.58s1.16,10.15,3.24,14.58c1.11,2.37,2.48,4.6,4.08,6.64,1.24,1.59,2.61,3.07,4.11,4.43,4.63,4.18,10.4,7.12,16.78,8.32,1.7-1.56,3.27-3.25,4.72-5.05-7.49-.42-14.22-3.7-19.13-8.76-1.57-1.62-2.96-3.42-4.12-5.37-2.58-4.33-4.07-9.39-4.07-14.79"/>
  <path class="st0" d="M69.18,28.8s.04.09.06.13c.66,1.42,1.26,2.86,1.81,4.34h0c4.91-5.06,11.64-8.34,19.13-8.76-1.45-1.8-3.02-3.49-4.72-5.05-6.38,1.19-12.15,4.13-16.78,8.32h0c.17.34.34.68.5,1.03"/>
  <path class="st0" d="M73.18,66.46c4.12,5.87,10.94,9.72,18.65,9.72.89,0,1.76-.06,2.62-.15,1.15-2.04,2.15-4.17,2.98-6.39-1.76.61-3.64.94-5.59.94-9.47,0-17.17-7.7-17.17-17.17s7.7-17.17,17.17-17.17c1.96,0,3.84.34,5.59.94-.83-2.22-1.83-4.35-2.98-6.39-.86-.1-1.73-.16-2.62-.16-7.71,0-14.52,3.85-18.65,9.72-2.59,3.7-4.12,8.2-4.12,13.05s1.53,9.35,4.12,13.05"/>
  <path class="st0" d="M110.79,71.64c0-4.87,4.01-7.77,9.01-7.77,4.08,0,6.6,1.89,7.7,3.96l-3.74,1.85c-.68-1.31-2.01-2.25-3.96-2.25-2.7,0-4.53,1.71-4.53,4.21s1.82,4.21,4.53,4.21c1.94,0,3.29-.9,3.92-2.16l3.78,1.83c-1.1,1.96-3.65,3.9-7.7,3.9-5,0-9.01-2.93-9.01-7.77"/>
  <polygon class="st0" points="129.31 64.12 142.46 64.12 142.46 67.54 133.68 67.54 133.68 69.89 142.19 69.89 142.19 73.17 133.68 73.17 133.68 75.72 142.46 75.72 142.46 79.14 129.31 79.14 129.31 64.12"/>
  <polygon class="st0" points="144.85 64.12 149.33 64.12 156.23 72.79 156.23 64.12 160.62 64.12 160.62 79.14 156.38 79.14 149.22 70.11 149.22 79.14 144.85 79.14 144.85 64.12"/>
  <polygon class="st0" points="167.56 67.81 162.67 67.81 162.67 64.12 176.82 64.12 176.82 67.81 171.95 67.81 171.95 79.14 167.56 79.14 167.56 67.81"/>
  <polygon class="st0" points="178.89 64.12 192.04 64.12 192.04 67.54 183.26 67.54 183.26 69.89 191.77 69.89 191.77 73.17 183.26 73.17 183.26 75.72 192.04 75.72 192.04 79.14 178.89 79.14 178.89 64.12"/>
  <path class="st0" d="M194.43,64.12h9.44c3.52,0,5.43,2.12,5.43,5.05,0,2.34-1.26,3.96-3.36,4.64l3.45,5.34h-5.09l-2.91-5h-2.59v5h-4.37v-15.03ZM203.17,70.7c1.01,0,1.76-.59,1.76-1.55s-.74-1.53-1.76-1.53h-4.37v3.09h4.37Z"/>
</svg>